<?xml version="1.0" standalone="no"?>
<!DOCTYPE svg PUBLIC "-//W3C//DTD SVG 20010904//EN"
 "http://www.w3.org/TR/2001/REC-SVG-20010904/DTD/svg10.dtd">
<svg version="1.0" xmlns="http://www.w3.org/2000/svg"
 width="512.000000pt" height="512.000000pt" viewBox="0 0 512.000000 512.000000"
 preserveAspectRatio="xMidYMid meet">

<g transform="translate(0.000000,512.000000) scale(0.100000,-0.100000)"
fill="#000000" stroke="none">
<path d="M2375 4794 c-108 -11 -262 -38 -367 -65 -756 -187 -1380 -789 -1596
-1539 -68 -235 -87 -373 -86 -635 0 -179 4 -243 22 -345 86 -500 305 -919 658
-1260 272 -263 595 -448 952 -546 223 -61 348 -77 597 -78 242 -1 343 11 559
65 621 155 1161 592 1453 1174 90 178 174 447 210 670 24 153 24 486 0 645
-152 989 -906 1744 -1892 1896 -97 15 -428 26 -510 18z m375 -1457 c100 -28
168 -57 243 -107 427 -278 490 -875 131 -1234 -359 -359 -956 -296 -1234 131
-192 292 -167 680 60 948 120 141 273 231 460 271 80 17 262 12 340 -9z"/>
</g>
</svg>
