<svg xmlns="http://www.w3.org/2000/svg" xmlns:xlink="http://www.w3.org/1999/xlink" width="220" height="170" viewBox="0 0 350 275" fill-opacity="0.075" stroke-opacity="0.075">
<defs>
<style>
.cls-1,.cls-4{fill:none;}.cls-2{fill-rule:evenodd;}.cls-3{clip-path:url(#clip-path);}.cls-4{stroke:#000000;stroke-width:4.5px;stroke-linecap: round;}.cls-5{fill:#000000;}
</style>
<clipPath id="clip-path" transform="translate(0 -0.3)">
<polygon class="cls-1" points="165.62 59.71 247.78 0 279.26 41.51 197.1 101.21 165.62 59.71"/>
</clipPath>
</defs>
<g id="katman_2" data-name="katman 2">
<g id="katman_1-2" data-name="katman 1">
<path class="cls-2" d="M143.76,131.54l-5.3,6.4,18,14.3a6.61,6.61,0,0,1,1,9.41l-5.43,6.56,7.21,5.73a1.45,1.45,0,0,1,.22,2.07l-11,13.3a1.52,1.52,0,0,1-2.11.22l-7.22-5.73-5.43,6.57a7,7,0,0,1-9.61,1L84.83,160.2a6.6,6.6,0,0,1-1-9.4l5.43-6.57L82.61,139a1.44,1.44,0,0,1-.23-2.06l11-13.31a1.52,1.52,0,0,1,2.11-.22l6.66,5.28,5.43-6.56a7,7,0,0,1,9.61-1l18,14.3,5.3-6.41a6.39,6.39,0,0,1,.42-7.63,6.74,6.74,0,0,1,9.36-1,6.42,6.42,0,0,1,1,9.16,6.73,6.73,0,0,1-7.54,2Zm-38.89,22.34,21.94,17.42a2.42,2.42,0,0,1,.37,3.45l-.74.89a2.54,2.54,0,0,1-3.52.36l-22-17.41a2.43,2.43,0,0,1-.37-3.45l.74-.89a2.56,2.56,0,0,1,3.53-.37Zm34.27-.85a6.51,6.51,0,0,1,1,9.28,6.83,6.83,0,0,1-9.47,1,6.48,6.48,0,0,1-1-9.26,6.82,6.82,0,0,1,9.47-1Zm-18.56-14.72a6.48,6.48,0,0,1,1,9.26,6.82,6.82,0,0,1-9.46,1,6.48,6.48,0,0,1-1-9.26,6.82,6.82,0,0,1,9.47-1Z" transform="translate(0 -0.3)"/>
<g class="cls-3">
<path class="cls-4" d="M169.12,58.22a2.83,2.83,0,0,0-.47,4.16L195.36,97.6s1.87,2.46,4.2.76L275.76,43a2.83,2.83,0,0,0,.47-4.16L249.51,3.61s-1.86-2.46-4.2-.76Z" transform="translate(0 -0.3)"/></g>
<g class="cls-3"><path class="cls-5" d="M208.53,75a.57.57,0,0,0-.09.83l3.24,4.26a.61.61,0,0,0,.84.16L254.07,50a.57.57,0,0,0,.09-.83l-3.24-4.27a.61.61,0,0,0-.84-.15Z" transform="translate(0 -0.3)"/></g><g class="cls-3"><path class="cls-5" d="M253.51,42.28a.56.56,0,0,0-.09.83l3.23,4.27a.61.61,0,0,0,.84.15l10.7-7.77a.57.57,0,0,0,.1-.83l-3.24-4.27a.61.61,0,0,0-.84-.15Z" transform="translate(0 -0.3)"/></g><g class="cls-3"><path class="cls-5" d="M194.51,85.16a.57.57,0,0,0-.1.83l3.24,4.27a.61.61,0,0,0,.84.15l10.7-7.77a.57.57,0,0,0,.09-.84l-3.23-4.26a.62.62,0,0,0-.84-.16Z" transform="translate(0 -0.3)"/></g><g class="cls-3"><path class="cls-5" d="M210.14,61.58a.57.57,0,0,0-.1.83l3.24,4.27a.61.61,0,0,0,.84.15l4-2.94a.57.57,0,0,0,.1-.83L215,58.79a.61.61,0,0,0-.84-.15Z" transform="translate(0 -0.3)"/></g><g class="cls-3"><path class="cls-5" d="M202.66,67a.57.57,0,0,0-.1.83l3.24,4.27a.61.61,0,0,0,.84.15l4.05-3a.57.57,0,0,0,.1-.83l-3.24-4.27a.61.61,0,0,0-.84-.15Z" transform="translate(0 -0.3)"/></g><g class="cls-3"><path class="cls-5" d="M188.53,77.28a.56.56,0,0,0-.09.83l3.23,4.27a.61.61,0,0,0,.84.15l10.7-7.77a.57.57,0,0,0,.1-.83l-3.24-4.27a.61.61,0,0,0-.84-.15Z" transform="translate(0 -0.3)"/></g><g class="cls-3"><path class="cls-5" d="M217.62,56.15a.56.56,0,0,0-.1.83l3.24,4.26a.61.61,0,0,0,.84.16l4.05-2.95a.57.57,0,0,0,.1-.83l-3.24-4.27a.61.61,0,0,0-.84-.15Z" transform="translate(0 -0.3)"/></g><g class="cls-3"><path class="cls-5" d="M225.1,50.71a.57.57,0,0,0-.1.83l3.24,4.27a.61.61,0,0,0,.84.15l4-2.94a.57.57,0,0,0,.1-.84L230,47.92a.61.61,0,0,0-.84-.15Z" transform="translate(0 -0.3)"/></g><g class="cls-3"><path class="cls-5" d="M232.58,45.28a.56.56,0,0,0-.1.83l3.24,4.26a.61.61,0,0,0,.84.16l4.05-3a.56.56,0,0,0,.09-.83l-3.23-4.27a.61.61,0,0,0-.84-.15Z" transform="translate(0 -0.3)"/></g><g class="cls-3"><path class="cls-5" d="M240.06,39.84a.57.57,0,0,0-.1.83l3.24,4.27a.61.61,0,0,0,.84.15l4.05-2.94a.57.57,0,0,0,.1-.84L245,37.05a.61.61,0,0,0-.84-.16Z" transform="translate(0 -0.3)"/></g><g class="cls-3"><path class="cls-5" d="M247.54,34.4a.57.57,0,0,0-.1.83l3.24,4.27a.61.61,0,0,0,.84.16l10.8-7.85a.56.56,0,0,0,.09-.83l-3.23-4.27a.61.61,0,0,0-.84-.15Z" transform="translate(0 -0.3)"/></g><g class="cls-3"><path class="cls-5" d="M200.84,56.12a.56.56,0,0,0-.09.83L204,61.22a.61.61,0,0,0,.84.15l4.05-2.94a.57.57,0,0,0,.1-.84l-3.24-4.26a.61.61,0,0,0-.84-.16Z" transform="translate(0 -0.3)"/></g><g class="cls-3"><path class="cls-5" d="M193.36,61.55a.57.57,0,0,0-.09.84l3.23,4.26a.62.62,0,0,0,.84.16l4.06-3a.57.57,0,0,0,.09-.83l-3.24-4.27a.61.61,0,0,0-.84-.15Z" transform="translate(0 -0.3)"/></g><g class="cls-3"><path class="cls-5" d="M182.56,69.41a.57.57,0,0,0-.1.83l3.24,4.26a.61.61,0,0,0,.84.16l7.38-5.36a.57.57,0,0,0,.09-.83l-3.24-4.27a.61.61,0,0,0-.84-.15Z" transform="translate(0 -0.3)"/></g><g class="cls-3"><path class="cls-5" d="M208.32,50.68a.57.57,0,0,0-.1.83l3.24,4.27a.61.61,0,0,0,.84.16l4-2.95a.57.57,0,0,0,.1-.83l-3.24-4.27a.61.61,0,0,0-.84-.15Z" transform="translate(0 -0.3)"/></g><g class="cls-3"><path class="cls-5" d="M215.8,45.25a.57.57,0,0,0-.1.83l3.24,4.27a.61.61,0,0,0,.84.15l4.05-3a.56.56,0,0,0,.1-.83l-3.24-4.26a.61.61,0,0,0-.84-.16Z" transform="translate(0 -0.3)"/></g><g class="cls-3"><path class="cls-5" d="M223.28,39.81a.57.57,0,0,0-.1.83l3.24,4.27a.61.61,0,0,0,.84.15l4.05-2.94a.57.57,0,0,0,.1-.83L228.17,37a.61.61,0,0,0-.84-.15Z" transform="translate(0 -0.3)"/></g><g class="cls-3"><path class="cls-5" d="M230.76,34.38a.57.57,0,0,0-.1.83l3.24,4.27a.61.61,0,0,0,.84.15l4-3a.57.57,0,0,0,.1-.83l-3.24-4.27a.61.61,0,0,0-.84-.15Z" transform="translate(0 -0.3)"/></g><g class="cls-3"><path class="cls-5" d="M238.24,28.94a.57.57,0,0,0-.1.83L241.38,34a.61.61,0,0,0,.84.15l4.05-2.94a.57.57,0,0,0,.1-.83l-3.24-4.27a.61.61,0,0,0-.84-.15Z" transform="translate(0 -0.3)"/></g><g class="cls-3"><path class="cls-5" d="M245.72,23.51a.57.57,0,0,0-.1.83l3.24,4.26a.61.61,0,0,0,.84.16l6.64-4.83a.57.57,0,0,0,.1-.83l-3.24-4.27a.61.61,0,0,0-.84-.15Z" transform="translate(0 -0.3)"/></g><g class="cls-3"><path class="cls-5" d="M213,35.09a.57.57,0,0,0-.09.83l3.24,4.27a.61.61,0,0,0,.84.15L221,37.4a.58.58,0,0,0,.09-.84l-3.24-4.26a.6.6,0,0,0-.83-.16Z" transform="translate(0 -0.3)"/></g><g class="cls-3"><path class="cls-5" d="M205.69,40.38a.57.57,0,0,0-.1.83l3.24,4.27a.61.61,0,0,0,.84.15l4.05-3a.57.57,0,0,0,.1-.83l-3.24-4.27a.61.61,0,0,0-.84-.15Z" transform="translate(0 -0.3)"/></g><g class="cls-3"><path class="cls-5" d="M198.41,45.66a.57.57,0,0,0-.09.84l3.23,4.26a.61.61,0,0,0,.84.16l4.06-3a.57.57,0,0,0,.09-.83l-3.24-4.27a.61.61,0,0,0-.84-.15Z" transform="translate(0 -0.3)"/></g><g class="cls-3"><path class="cls-5" d="M191.13,51a.57.57,0,0,0-.09.83l3.24,4.27a.61.61,0,0,0,.84.15l4-2.94a.56.56,0,0,0,.09-.83L196,48.16a.61.61,0,0,0-.84-.15Z" transform="translate(0 -0.3)"/></g><g class="cls-3"><path class="cls-5" d="M183.86,56.24a.57.57,0,0,0-.1.83L187,61.34a.61.61,0,0,0,.84.15l4-2.94a.57.57,0,0,0,.1-.83l-3.24-4.27a.61.61,0,0,0-.84-.16Z" transform="translate(0 -0.3)"/></g><g class="cls-3"><path class="cls-5" d="M176.58,61.53a.56.56,0,0,0-.09.83l3.23,4.27a.61.61,0,0,0,.84.15l4.06-3a.57.57,0,0,0,.09-.83l-3.24-4.26a.61.61,0,0,0-.84-.16Z" transform="translate(0 -0.3)"/></g><g class="cls-3"><path class="cls-5" d="M220.24,29.8a.56.56,0,0,0-.09.83l3.23,4.27a.61.61,0,0,0,.84.15l4.05-2.94a.57.57,0,0,0,.1-.83L225.13,27a.61.61,0,0,0-.84-.15Z" transform="translate(0 -0.3)"/></g><g class="cls-3"><path class="cls-5" d="M227.52,24.51a.57.57,0,0,0-.1.83l3.24,4.27a.61.61,0,0,0,.84.15l4.05-2.94a.56.56,0,0,0,.09-.83l-3.23-4.27a.61.61,0,0,0-.84-.15Z" transform="translate(0 -0.3)"/></g><g class="cls-3"><path class="cls-5" d="M234.79,19.23a.56.56,0,0,0-.09.83l3.24,4.26a.61.61,0,0,0,.84.16l4.05-2.95a.57.57,0,0,0,.09-.83l-3.24-4.27a.61.61,0,0,0-.84-.15Z" transform="translate(0 -0.3)"/></g><g class="cls-3"><path class="cls-5" d="M242.07,13.94a.57.57,0,0,0-.1.83L245.21,19a.61.61,0,0,0,.84.15l4-3a.56.56,0,0,0,.1-.83L247,11.15a.61.61,0,0,0-.84-.16Z" transform="translate(0 -0.3)"/></g><path d="M81.09,15.43a29.65,29.65,0,0,1-5,36L52.27,74.81a31.2,31.2,0,0,1-43.33,0,29.62,29.62,0,0,1,0-42.41L32.79,9.06A31.23,31.23,0,0,1,71.87,5.59a37.37,37.37,0,0,1,9.22,9.84ZM59,25.37h0a5.65,5.65,0,0,1,0,8.07L54.71,37.6a6,6,0,0,1-8.25,0h0a5.65,5.65,0,0,1,0-8.07l4.24-4.16a5.94,5.94,0,0,1,8.25,0Zm18.87,4.89A22.59,22.59,0,0,0,71,14.06a23.86,23.86,0,0,0-33.09,0L14.06,37.41a22.64,22.64,0,0,0,0,32.39,23.86,23.86,0,0,0,33.09,0L71,46.46a22.57,22.57,0,0,0,6.83-16.2Z" transform="translate(0 -0.3)"/></g></g></svg>